# xmcd
#
# Track frame offsets: 
#        150
#        13022
#        28501
#        46327
#        60712
#        74965
#        91078
#        104734
#        119638
#        128210
#        139805
#        144552
#        153147
#        163964
#        177970
#        188927
#        204183
#        215966
#        225782
#        237792
#        260068
#        273892
#        288992
#        300631
#        316139
#        327471
#        344356
#
# Disc length: 4744 seconds
#
# Revision: 0
# Processed by: cddbd v1.5.1PL0 Copyright (c) Steve Scherf et al.
# Submitted via: ExactAudioCopy v0.95a3
#
DISCID=9a12861b
DTITLE=Various Artist - Союз 27
DYEAR=2000
DGENRE=Pop
TTITLE0=Блестящие И Дискотека Авария - Чао, Бамбина
TTITLE1=Валерия - Метелица (Club Mix)
TTITLE2=Чичерина - Ту-Лу-Ла (Dj Raptan Club Mix)
TTITLE3=Лиса - Пусть Уйдёт День
TTITLE4=Карамель - Где Ты?
TTITLE5=Русский Размер - Новая Весна
TTITLE6=Грин Грей - M...F... (Авария Mix)
TTITLE7=Жуки Vs. Авария - Влечение
TTITLE8=Пульс - Беги
TTITLE9=Стрелки - Не Любовь (Virus Mix)
TTITLE10=Алла Горбачёва - Кто Из Нас Виноват
TTITLE11=Русский Размер - Увидеть Небо
TTITLE12=Dj Грув - Ответ
TTITLE13=Вирус - Позови Меня
TTITLE14=Лето - Понедельник Без Тебя (Club Mix)
TTITLE15=Ди-Вам - Я Здесь, Я Рядом
TTITLE16=Шао-Бао - Сезон Дождей
TTITLE17=Жасмин - Летний День
TTITLE18=Однажды - Гром
TTITLE19=Алсу - Соло (Love Infinity Master Mix)
TTITLE20=Лена Перова - Лети За Солнцем
TTITLE21=Мелисса - Я Тону
TTITLE22=Однажды - Падаю Я
TTITLE23=Лика - Ветер
TTITLE24=Валерия - Рига-Москва
TTITLE25=Reflex - Встречай Новый День Без Меня
TTITLE26=Жин-Жин - Легко
EXTD=
EXTT0=
EXTT1=
EXTT2=
EXTT3=
EXTT4=
EXTT5=
EXTT6=
EXTT7=
EXTT8=
EXTT9=
EXTT10=
EXTT11=
EXTT12=
EXTT13=
EXTT14=
EXTT15=
EXTT16=
EXTT17=
EXTT18=
EXTT19=
EXTT20=
EXTT21=
EXTT22=
EXTT23=
EXTT24=
EXTT25=
EXTT26=
PLAYORDER=
